# Blender v2.82 (sub 7) OBJ File: 'asteroid.blend'
# www.blender.org
mtllib asteroidLD.mtl
v -0.118495 0.384606 -0.259129
v 0.002676 0.120276 -0.350337
v -0.023545 0.001029 -0.430351
v 0.066851 0.158592 -0.363736
v 0.072757 -0.094372 -0.496926
v 0.083138 -0.159655 -0.475180
v 0.024366 -0.278794 -0.365966
v 0.045099 0.394520 -0.290394
v 0.144302 0.167179 -0.360531
v 0.172348 -0.107018 -0.459556
v 0.102050 0.342050 -0.330069
v 0.236748 0.066917 -0.398156
v 0.263175 -0.053784 -0.391480
v 0.174755 -0.242412 -0.349749
v 0.081733 -0.406701 -0.191022
v 0.175433 0.185416 -0.317222
v 0.158698 0.496899 -0.127856
v 0.213444 0.462058 -0.178278
v 0.251388 0.353941 -0.248267
v 0.349429 -0.058189 -0.222630
v 0.298085 0.397086 -0.166113
v 0.273942 0.116348 -0.186018
v 0.347761 -0.000080 -0.225074
v 0.271178 -0.313373 -0.210451
v 0.251721 0.467865 -0.087951
v 0.373319 0.301991 -0.077991
v 0.397025 0.159845 -0.070958
v 0.459204 -0.038652 -0.104376
v 0.426733 -0.276465 -0.082278
v 0.151740 0.508131 -0.044378
v 0.378312 0.305556 0.014393
v 0.459918 0.008663 -0.014478
v 0.501843 -0.206029 0.014220
v 0.441510 -0.320135 -0.029928
v 0.233696 -0.413768 -0.150408
v 0.002243 -0.477717 -0.051479
v 0.382549 0.088408 0.149061
v 0.468422 -0.305378 0.078277
v 0.267563 -0.441584 0.089632
v 0.210254 0.459605 0.019173
v 0.474845 -0.096124 0.209809
v 0.410267 -0.291602 0.189667
v 0.332174 0.251118 0.177432
v 0.311336 0.137562 0.251714
v 0.330147 -0.390706 0.145539
v 0.119843 0.405036 0.108835
v 0.214934 0.226201 0.289533
v 0.262091 0.094804 0.416716
v 0.394514 -0.122976 0.317288
v 0.131195 0.262949 0.332567
v 0.204456 0.113712 0.488167
v 0.220221 -0.030681 0.499230
v 0.211140 -0.131403 0.452174
v 0.147849 -0.242053 0.352932
v 0.149293 -0.349555 0.265995
v 0.081319 -0.456298 0.049343
v 0.097712 0.385071 0.173707
v 0.103905 0.081743 0.504385
v 0.050212 0.323681 0.303214
v 0.110097 -0.052956 0.498907
v 0.051577 -0.336129 0.284452
v -0.045867 0.241202 0.330453
v -0.006212 0.103194 0.419115
v -0.074113 0.028761 0.420223
v 0.062420 -0.169505 0.414515
v -0.170909 0.157026 0.397377
v -0.021817 -0.349507 0.208285
v -0.189006 0.065093 0.414951
v -0.225858 -0.156775 0.349196
v -0.136826 -0.207870 0.319236
v 0.032566 0.392368 0.080848
v -0.071306 0.341366 0.210920
v -0.254294 0.214329 0.311444
v -0.361490 0.034468 0.366814
v -0.353882 -0.138306 0.351797
v -0.122910 -0.259422 0.174501
v -0.064571 0.348874 0.087081
v -0.257593 0.364199 0.195776
v -0.438729 0.135703 0.313467
v -0.484424 0.032955 0.294625
v -0.423799 -0.176366 0.289159
v -0.340029 -0.228841 0.291351
v -0.014116 -0.377289 0.157092
v -0.550148 0.131353 0.232352
v -0.487236 -0.102732 0.210728
v -0.243842 -0.273559 0.129117
v -0.014324 0.459850 -0.039737
v -0.294214 0.379649 0.110519
v -0.404614 0.352064 0.127718
v -0.417200 -0.200185 0.098531
v -0.006003 -0.467630 0.037306
v -0.114886 0.356948 0.015881
v -0.570572 0.170877 0.111226
v -0.574363 0.058347 0.091510
v -0.438858 -0.087964 0.016110
v -0.386698 -0.204349 -0.002507
v -0.333615 -0.252780 0.034372
v -0.227746 -0.388247 0.044175
v -0.166867 0.348484 0.033761
v -0.391181 0.301412 -0.046141
v -0.416495 0.162209 -0.162620
v -0.433725 0.067860 -0.130360
v -0.305684 -0.212995 -0.102885
v -0.257564 0.313491 -0.115416
v -0.309581 -0.081240 -0.130373
v -0.215795 -0.395134 -0.110660
v -0.109250 -0.425279 0.015252
v -0.294165 0.238550 -0.180367
v -0.367686 0.131243 -0.321127
v -0.361577 0.027511 -0.324612
v -0.246585 -0.120177 -0.301028
v -0.238388 -0.344271 -0.168835
v -0.191838 0.356437 -0.216153
v -0.205066 0.246859 -0.321297
v -0.294460 0.067937 -0.421049
v -0.251909 -0.210778 -0.212796
v -0.185605 0.124638 -0.436644
v -0.083895 -0.305035 -0.325130
v -0.113075 0.279224 -0.327737
v -0.183735 0.060277 -0.444460
v -0.156631 -0.041592 -0.417357
v -0.108395 -0.180057 -0.419709
v -0.089969 -0.441819 -0.227045
v 0.013358 0.475804 -0.094847
v -0.025552 -0.443369 -0.226837
vt 0.750000 0.506131
vt 0.724682 0.630479
vt 0.726394 0.446597
vt 0.744050 0.293351
vt 0.684715 0.153113
vt 0.765919 0.145825
vt 0.698553 0.746057
vt 0.687500 0.630154
vt 0.664200 0.535156
vt 0.687500 0.430574
vt 0.721448 0.395843
vt 0.672428 0.315903
vt 0.653224 0.460902
vt 0.613517 0.295562
vt 0.609376 0.820864
vt 0.625851 0.746525
vt 0.591929 0.197850
vt 0.655287 0.656741
vt 0.584910 0.514010
vt 0.590982 0.455234
vt 0.579645 0.770775
vt 0.540063 0.612220
vt 0.593789 0.605947
vt 0.690399 0.975094
vt 0.547402 0.903427
vt 0.735239 0.932401
vt 0.531957 0.713007
vt 0.531290 0.320155
vt 0.506567 0.290275
vt 0.531250 0.473466
vt 0.499443 0.712400
vt 0.551229 0.831850
vt 0.454986 0.177748
vt 0.750725 0.038005
vt 0.498734 0.509442
vt 0.500000 0.374569
vt 0.515623 0.000000
vt 0.413990 0.064444
vt 0.484028 0.861272
vt 0.438677 0.447435
vt 0.468750 0.318464
vt 0.425192 0.688399
vt 0.428827 0.319105
vt 0.434126 0.241059
vt 0.442709 0.568465
vt 0.333954 0.831914
vt 0.391263 0.878339
vt 0.421873 1.000000
vt 0.304725 0.926053
vt 0.396596 0.599314
vt 0.345474 0.565150
vt 0.357089 0.684868
vt 0.336432 0.231898
vt 0.396745 0.431710
vt 0.312500 0.701938
vt 0.312500 0.565902
vt 0.282951 0.236599
vt 0.234063 0.128089
vt 0.316004 0.327867
vt 0.279357 0.758864
vt 0.272146 0.377932
vt 0.249967 0.579282
vt 0.281250 0.548951
vt 0.188780 0.811659
vt 0.280564 0.462006
vt 0.227676 0.512760
vt 0.223758 0.693815
vt 0.229235 0.194890
vt 0.178697 0.319752
vt 0.154695 0.224387
vt 0.186659 0.610182
vt 0.184345 0.539769
vt 0.141489 0.654660
vt 0.159347 0.383125
vt 0.111856 0.346861
vt 0.081448 0.245122
vt 0.098774 0.580312
vt 0.125000 0.413846
vt 0.105801 0.764557
vt 0.126035 0.515906
vt 0.093750 0.520401
vt 0.151695 0.903546
vt 0.059493 0.783353
vt 0.093750 0.395352
vt 0.050122 0.720105
vt 0.062500 0.568342
vt 0.044740 0.890830
vt 0.036455 0.842055
vt 0.062500 0.439027
vt 0.040378 0.377540
vt 0.025437 0.276033
vt 0.030126 0.590964
vt 0.028132 0.528622
vt 0.201068 0.025919
vt 0.017780 0.091782
vt 0.000001 0.031250
vt 0.000000 0.437840
vt 0.000000 0.345781
vt 0.000000 0.755016
vt 0.000000 0.708790
vt 0.978230 0.706161
vt 0.947225 0.607488
vt 1.000000 0.606288
vt 0.999959 0.261549
vt 0.927569 0.174359
vt 1.000000 0.166872
vt 0.982966 0.092688
vt 0.911816 0.687083
vt 0.947145 0.304647
vt 0.901369 0.225679
vt 0.939402 0.419611
vt 0.876652 0.314621
vt 0.885058 0.586106
vt 0.949866 0.547173
vt 0.929085 0.759678
vt 0.866434 0.787646
vt 0.812756 0.171772
vt 0.843750 0.684003
vt 0.793150 0.269247
vt 0.843750 0.543242
vt 0.881059 0.520334
vt 0.864629 0.413885
vt 0.791531 0.375669
vt 0.812500 0.581347
vt 0.810314 0.526040
vt 0.798166 0.466478
vt 0.810836 0.715247
vt 0.749886 0.604223
vt 0.811215 0.796882
vt 0.718450 0.795265
vt 0.614953 0.874674
vt 0.315962 0.484091
vt 0.319429 0.422540
vt 0.331361 0.022382
vt 0.031894 0.165213
vt 0.078211 0.989139
vt 1.000012 0.437852
vt 1.000000 0.545694
vt 1.000000 0.345781
vt 0.995069 0.891785
vt 0.991741 0.812500
vn -0.1522 0.4577 -0.8760
vn 0.4310 -0.6552 -0.6204
vn 0.0211 0.1765 -0.9841
vn -0.0002 0.3512 -0.9363
vn 0.3658 0.1864 -0.9118
vn 0.4510 -0.5574 -0.6971
vn 0.5678 0.0790 -0.8194
vn 0.6211 -0.4353 -0.6517
vn 0.3502 0.5925 -0.7254
vn 0.5069 -0.5739 -0.6432
vn 0.7686 0.5808 -0.2681
vn 0.8513 -0.2822 -0.4423
vn 0.5355 0.5833 -0.6107
vn 0.7391 -0.0585 -0.6711
vn 0.7687 0.5787 -0.2724
vn -0.2729 0.9520 0.1385
vn 0.8249 0.1467 -0.5459
vn 0.6156 -0.5109 -0.6000
vn 0.6500 -0.1578 -0.7434
vn 0.8115 0.5806 -0.0663
vn 0.7437 0.3308 -0.5810
vn 0.7335 -0.0075 -0.6797
vn 0.8046 0.5910 -0.0579
vn 0.9851 0.1613 -0.0595
vn 0.2070 -0.9681 -0.1414
vn 0.9304 0.3212 -0.1764
vn 0.9789 0.1776 -0.1013
vn 0.1111 -0.9862 0.1224
vn 0.6483 0.6978 0.3047
vn 0.8453 -0.2681 -0.4622
vn 0.0391 -0.9832 0.1782
vn 0.9805 0.1949 0.0258
vn 0.9576 -0.1739 0.2299
vn 0.6253 0.6697 0.4006
vn 0.6147 -0.6771 0.4046
vn 0.9152 0.2251 0.3342
vn 0.3846 0.6902 0.6130
vn -0.2902 0.7826 0.5508
vn 0.8225 0.4406 0.3597
vn -0.4070 0.9028 0.1390
vn 0.3987 0.7139 0.5757
vn 0.3444 -0.6000 0.7221
vn 0.1775 -0.8186 0.5462
vn 0.7649 0.1832 0.6175
vn 0.7035 0.6083 0.3676
vn 0.5404 0.7183 0.4382
vn 0.5400 0.7198 0.4361
vn -0.0653 -0.9392 0.3372
vn 0.0605 -0.6272 0.7765
vn 0.3647 0.7518 0.5494
vn 0.0432 -0.6165 0.7862
vn -0.4662 0.5022 0.7284
vn -0.1998 0.9559 0.2153
vn -0.1533 0.9135 0.3768
vn -0.4981 -0.3656 0.7863
vn -0.3887 0.6638 0.6390
vn -0.6875 -0.7025 0.1841
vn 0.0135 0.1852 0.9826
vn -0.1551 0.7407 0.6537
vn -0.0532 -0.5725 0.8182
vn -0.0153 -0.9424 0.3342
vn -0.2725 0.6573 0.7027
vn -0.0210 -0.2809 0.9595
vn -0.2428 0.5893 0.7705
vn -0.5058 0.0672 0.8600
vn 0.1393 0.9880 0.0675
vn -0.3670 -0.5547 0.7467
vn -0.4802 0.6137 0.6267
vn -0.5876 0.1144 0.8010
vn -0.0975 0.9788 0.1799
vn -0.8554 -0.2595 0.4483
vn 0.1082 0.9707 -0.2146
vn -0.7826 -0.6205 0.0504
vn -0.1966 0.9465 0.2560
vn -0.4931 -0.8672 0.0685
vn -0.9859 0.0039 0.1675
vn -0.8508 -0.5194 -0.0800
vn -0.3910 -0.9179 0.0680
vn -0.8968 -0.3610 -0.2558
vn 0.0726 0.9603 -0.2694
vn -0.7029 0.6665 -0.2485
vn -0.7474 0.5010 -0.4364
vn -0.7863 -0.6169 -0.0332
vn -0.2938 -0.9557 0.0198
vn -0.4747 0.6140 -0.6306
vn -0.9043 -0.3240 -0.2779
vn -0.8911 -0.1178 -0.4383
vn -0.8722 -0.2304 -0.4314
vn -0.5347 0.7830 -0.3176
vn -0.9496 0.0688 -0.3059
vn -0.5209 0.8533 0.0239
vn -0.6074 -0.6998 -0.3760
vn -0.7404 0.5097 -0.4381
vn -0.6404 -0.2980 -0.7079
vn -0.4224 0.5932 -0.6854
vn -0.8148 -0.0285 -0.5790
vn -0.6803 -0.4904 -0.5447
vn -0.4078 0.5915 -0.6956
vn -0.1981 0.1125 -0.9737
vn -0.2172 -0.3045 -0.9274
vn 0.8707 0.1124 -0.4788
vn -0.0230 -0.9818 -0.1887
vn -0.1655 -0.5698 -0.8049
vn -0.2158 0.4028 -0.8895
vn -0.2005 -0.0067 -0.9797
vn -0.4759 0.5598 -0.6784
vn 0.2467 -0.7420 -0.6234
vn 0.0728 0.4660 -0.8818
vn 0.3838 -0.8928 -0.2357
vn -0.1312 0.9077 -0.3986
vn 0.3111 -0.2555 -0.9154
vn 0.1733 0.7067 -0.6859
vn 0.2440 -0.7180 -0.6519
vn 0.4597 0.6507 -0.6044
vn -0.2207 0.8874 -0.4047
vn 0.0287 0.8366 -0.5470
vn 0.6893 -0.4489 -0.5686
vn 0.4662 0.1469 -0.8724
vn 0.7178 0.2842 -0.6356
vn 0.3541 0.9224 -0.1542
vn 0.1450 -0.7287 -0.6693
vn 0.7069 -0.2493 -0.6620
vn 0.0703 -0.9046 -0.4204
vn -0.1744 0.9739 -0.1456
vn 0.6071 0.7339 -0.3045
vn 0.8237 0.1098 -0.5563
vn 0.5893 -0.5652 -0.5772
vn 0.5110 -0.8510 -0.1211
vn 0.4692 0.5336 -0.7037
vn -0.2268 0.8293 0.5108
vn 0.7294 -0.2540 -0.6352
vn 0.9197 0.2796 -0.2757
vn 0.4511 0.8594 0.2409
vn 0.8327 -0.1629 -0.5292
vn 0.7620 0.1586 0.6278
vn 0.9189 0.2208 0.3271
vn 0.0660 0.8214 0.5665
vn 0.8969 -0.4095 -0.1672
vn 0.8580 0.4849 0.1695
vn 0.8230 -0.3202 0.4693
vn 0.5619 -0.8190 0.1163
vn 0.7899 0.5081 0.3434
vn 0.7961 -0.3162 0.5160
vn 0.8462 0.1742 0.5036
vn 0.3694 -0.5386 0.7573
vn 0.3446 -0.5875 0.7322
vn 0.6056 0.3548 0.7123
vn -0.0264 -0.8934 0.4485
vn 0.4284 -0.7267 0.5370
vn -0.1727 -0.8610 0.4784
vn 0.5567 -0.3923 0.7323
vn 0.6829 0.6196 0.3869
vn 0.0687 0.0254 0.9973
vn -0.2093 0.9524 0.2217
vn -0.0746 0.6277 0.7748
vn -0.0415 -0.6157 0.7869
vn 0.0204 -0.7976 0.6029
vn 0.0839 -0.4280 0.8999
vn -0.1933 -0.2089 0.9586
vn 0.3916 0.7675 0.5075
vn -0.2834 -0.8601 0.4241
vn -0.4877 0.4560 0.7445
vn -0.4131 -0.0560 0.9090
vn -0.1828 0.4937 0.8502
vn -0.0969 0.1032 0.9899
vn -0.4067 0.9130 0.0332
vn -0.2557 -0.5845 0.7701
vn -0.4101 -0.7451 0.5260
vn -0.3631 0.8617 0.3543
vn -0.5474 -0.1420 0.8247
vn -0.1842 -0.7159 0.6735
vn 0.0714 0.5536 0.8297
vn -0.1552 0.7457 0.6479
vn -0.6894 -0.6751 0.2627
vn -0.0641 -0.5609 0.8254
vn 0.0576 -0.9532 0.2969
vn 0.0106 0.6111 0.7915
vn -0.3076 0.2367 0.9216
vn -0.3016 0.2541 0.9189
vn -0.2613 -0.7791 0.5699
vn -0.2519 -0.0948 0.9631
vn -0.2831 -0.3906 0.8759
vn -0.4189 0.7132 0.5620
vn -0.2558 0.9188 -0.3005
vn 0.1101 0.9852 0.1312
vn -0.3660 0.6387 0.6768
vn -0.3541 -0.5882 0.7271
vn -0.8436 -0.2696 0.4643
vn -0.5305 -0.8432 0.0870
vn -0.3049 -0.9489 0.0808
vn -0.6825 -0.4944 0.5383
vn -0.9143 -0.2733 0.2989
vn -0.3359 -0.9212 -0.1966
vn -0.7123 0.6230 0.3234
vn -0.7596 -0.4738 -0.4456
vn -0.6069 -0.7803 -0.1511
vn -0.6984 -0.4778 -0.5328
vn -0.8582 0.0563 -0.5101
vn -0.7643 -0.2473 -0.5956
vn -0.4985 -0.8002 -0.3334
vn -0.7645 -0.6277 -0.1468
vn -0.5607 0.7442 0.3630
vn -0.1963 0.9744 -0.1093
vn -0.7366 -0.1589 -0.6574
vn -0.3757 0.7049 -0.6016
vn -0.8304 -0.5373 -0.1473
vn -0.9395 -0.0439 -0.3398
vn -0.3622 -0.9314 0.0348
vn -0.9291 -0.2286 -0.2908
vn -0.7675 0.5907 -0.2490
vn -0.4646 0.8818 -0.0818
vn -0.5622 0.6069 -0.5617
vn -0.5523 0.7764 -0.3034
vn -0.5671 -0.5407 -0.6213
vn -0.6562 -0.5329 -0.5342
vn -0.2406 0.5209 -0.8190
vn -0.2744 0.6365 -0.7208
vn -0.5701 -0.4619 -0.6795
vn -0.1727 0.5099 -0.8427
vn -0.4269 -0.5611 -0.7092
vn -0.6894 -0.2285 -0.6874
vn 0.3893 0.4014 -0.8290
vn 0.4159 0.1215 -0.9012
vn -0.0130 -0.6432 -0.7656
vn 0.2574 0.4988 -0.8277
vn -0.0111 -0.2598 -0.9656
vn -0.3474 -0.1052 -0.9318
vn -0.2280 -0.3401 -0.9123
vn -0.1505 -0.6210 -0.7692
vn -0.0668 0.1925 -0.9790
usemtl None
s off
f 3/1/1 4/2/1 5/3/1
f 7/4/2 15/5/2 125/6/2
f 11/7/3 9/8/3 4/2/3
f 4/2/4 9/8/4 12/9/4
f 5/3/5 12/9/5 10/10/5
f 6/11/6 10/10/6 14/12/6
f 12/9/7 13/13/7 10/10/7
f 14/12/8 13/13/8 24/14/8
f 18/15/9 19/16/9 11/7/9
f 14/12/10 24/14/10 35/17/10
f 16/18/11 23/19/11 12/9/11
f 13/13/12 20/20/12 24/14/12
f 18/15/13 21/21/13 19/16/13
f 19/16/14 27/22/14 16/18/14
f 16/18/15 22/23/15 23/19/15
f 87/24/16 30/25/16 124/26/16
f 21/21/17 26/27/17 19/16/17
f 24/14/18 29/28/18 34/29/18
f 24/14/19 28/30/19 29/28/19
f 21/21/20 31/31/20 26/27/20
f 23/19/21 27/22/21 28/30/21
f 23/19/22 28/30/22 20/20/22
f 21/21/23 25/32/23 31/31/23
f 26/27/24 31/31/24 27/22/24
f 35/17/25 39/33/25 36/34/25
f 27/22/26 32/35/26 28/30/26
f 28/30/27 32/35/27 33/36/27
f 91/37/28 36/34/28 56/38/28
f 25/32/29 40/39/29 31/31/29
f 29/28/30 33/36/30 34/29/30
f 36/34/31 39/33/31 56/38/31
f 33/36/32 32/35/32 41/40/32
f 33/36/33 41/40/33 38/41/33
f 31/31/34 40/39/34 43/42/34
f 38/41/35 42/43/35 45/44/35
f 31/31/36 43/42/36 37/45/36
f 43/42/37 40/39/37 57/46/37
f 46/47/38 87/48/38 71/49/38
f 37/45/39 44/50/39 48/51/39
f 40/39/40 46/47/40 57/46/40
f 57/46/41 47/52/41 43/42/41
f 42/43/42 55/53/42 45/44/42
f 39/33/43 45/44/43 55/53/43
f 41/40/44 48/51/44 49/54/44
f 44/50/45 47/52/45 48/51/45
f 47/52/46 57/46/46 50/55/46
f 47/52/47 50/55/47 51/56/47
f 55/53/48 61/57/48 83/58/48
f 54/59/49 61/57/49 55/53/49
f 50/55/50 59/60/50 51/56/50
f 54/59/51 65/61/51 61/57/51
f 59/60/52 63/62/52 58/63/52
f 71/49/53 72/64/53 57/46/53
f 57/46/54 72/64/54 59/60/54
f 60/65/55 64/66/55 65/61/55
f 59/60/56 72/64/56 62/67/56
f 67/68/57 70/69/57 76/70/57
f 66/71/58 68/72/58 64/66/58
f 62/67/59 72/64/59 73/73/59
f 69/74/60 82/75/60 70/69/60
f 70/69/61 86/76/61 76/70/61
f 66/71/62 73/73/62 79/77/62
f 68/72/63 75/78/63 69/74/63
f 73/73/64 78/79/64 79/77/64
f 74/80/65 79/77/65 80/81/65
f 72/64/66 77/82/66 88/83/66
f 75/78/67 81/84/67 82/75/67
f 79/77/68 89/85/68 84/86/68
f 79/77/69 84/86/69 80/81/69
f 77/82/70 92/87/70 99/88/70
f 80/81/71 85/89/71 81/84/71
f 77/82/72 99/88/72 88/83/72
f 81/84/73 85/89/73 90/90/73
f 78/79/74 88/83/74 89/85/74
f 82/75/75 90/90/75 97/91/75
f 84/86/76 93/92/76 94/93/76
f 85/89/77 94/93/77 90/90/77
f 91/94/78 107/95/78 36/96/78
f 90/90/79 95/97/79 96/98/79
f 99/88/80 104/99/80 88/83/80
f 89/85/81 100/100/81 93/92/81
f 100/101/82 101/102/82 93/103/82
f 97/104/83 106/105/83 98/106/83
f 98/106/84 106/105/84 107/107/84
f 100/101/85 108/108/85 101/102/85
f 97/104/86 103/109/86 112/110/86
f 103/109/87 105/111/87 116/112/87
f 103/109/88 116/112/88 112/110/88
f 108/108/89 109/113/89 101/102/89
f 101/102/90 109/113/90 102/114/90
f 104/115/91 87/24/91 113/116/91
f 106/105/92 112/110/92 123/117/92
f 113/116/93 114/118/93 108/108/93
f 112/110/94 116/112/94 118/119/94
f 109/113/95 114/118/95 115/120/95
f 109/113/96 115/120/96 110/121/96
f 111/122/97 122/123/97 116/112/97
f 114/118/98 117/124/98 115/120/98
f 115/120/99 117/124/99 120/125/99
f 115/120/100 120/125/100 121/126/100
f 20/20/101 13/13/101 12/9/101 23/19/101
f 123/117/102 125/6/102 36/34/102
f 118/119/103 7/4/103 123/117/103
f 121/126/104 3/1/104 5/3/104
f 119/127/105 4/2/105 2/128/105
f 3/1/106 2/128/106 4/2/106
f 7/4/107 14/12/107 15/5/107
f 5/3/108 4/2/108 12/9/108
f 125/6/109 15/5/109 36/34/109
f 1/129/110 124/26/110 8/130/110
f 6/11/111 5/3/111 10/10/111
f 8/130/112 18/15/112 11/7/112
f 7/4/113 6/11/113 14/12/113
f 9/8/114 16/18/114 12/9/114
f 8/130/115 124/26/115 17/131/115
f 18/15/116 8/130/116 17/131/116
f 14/12/117 10/10/117 13/13/117
f 11/7/118 19/16/118 16/18/118
f 9/8/119 11/7/119 16/18/119
f 25/32/120 18/15/120 17/131/120 30/25/120
f 15/5/121 14/12/121 35/17/121
f 16/18/122 27/22/122 22/23/122
f 15/5/123 35/17/123 36/34/123
f 17/131/124 124/26/124 30/25/124
f 21/21/125 18/15/125 25/32/125
f 19/16/126 26/27/126 27/22/126
f 35/17/127 24/14/127 34/29/127
f 39/33/128 35/17/128 34/29/128 38/41/128
f 23/19/129 22/23/129 27/22/129
f 87/24/130 46/47/130 30/25/130
f 24/14/131 20/20/131 28/30/131
f 27/22/132 31/31/132 32/35/132
f 25/32/133 30/25/133 40/39/133
f 29/28/134 28/30/134 33/36/134
f 51/56/135 52/132/135 49/54/135 48/51/135
f 32/35/136 31/31/136 37/45/136
f 30/25/137 46/47/137 40/39/137
f 34/29/138 33/36/138 38/41/138
f 32/35/139 37/45/139 41/40/139
f 38/41/140 41/40/140 42/43/140
f 39/33/141 38/41/141 45/44/141
f 41/40/142 37/45/142 48/51/142
f 42/43/143 41/40/143 49/54/143
f 37/45/144 43/42/144 44/50/144
f 42/43/145 49/54/145 54/59/145
f 42/43/146 54/59/146 55/53/146
f 44/50/147 43/42/147 47/52/147
f 56/38/148 39/33/148 55/53/148
f 54/59/149 49/54/149 53/133/149
f 56/38/150 55/53/150 83/58/150
f 49/54/151 52/132/151 53/133/151
f 48/51/152 47/52/152 51/56/152
f 58/63/153 60/65/153 52/132/153 51/56/153
f 46/47/154 71/49/154 57/46/154
f 51/56/155 59/60/155 58/63/155
f 60/65/156 65/61/156 54/59/156 53/133/156
f 56/38/157 83/58/157 91/134/157
f 53/133/158 52/132/158 60/65/158
f 69/74/159 65/61/159 64/66/159 68/72/159
f 50/55/160 57/46/160 59/60/160
f 83/58/161 61/57/161 67/68/161
f 58/63/162 63/62/162 64/66/162
f 60/65/163 58/63/163 64/66/163
f 59/60/164 62/67/164 63/62/164
f 63/62/165 66/71/165 64/66/165
f 71/49/166 77/82/166 72/64/166
f 61/57/167 65/61/167 70/69/167
f 61/57/168 70/69/168 67/68/168
f 77/82/169 71/49/169 92/87/169
f 80/81/170 81/84/170 75/78/170 74/80/170
f 65/61/171 69/74/171 70/69/171
f 63/62/172 62/67/172 66/71/172
f 66/71/173 62/67/173 73/73/173
f 67/68/174 76/70/174 83/58/174
f 69/74/175 75/78/175 82/75/175
f 70/69/176 82/75/176 86/76/176
f 73/73/177 72/64/177 78/79/177
f 68/72/178 66/71/178 79/77/178
f 68/72/179 79/77/179 74/80/179
f 91/134/180 83/58/180 98/135/180
f 68/72/181 74/80/181 75/78/181
f 83/58/182 76/70/182 86/76/182
f 71/49/183 87/136/183 92/87/183
f 100/100/184 89/85/184 88/83/184 104/99/184
f 78/79/185 72/64/185 88/83/185
f 79/77/186 78/79/186 89/85/186
f 83/58/187 86/76/187 98/135/187
f 80/81/188 84/86/188 85/89/188
f 82/75/189 81/84/189 90/90/189
f 86/76/190 82/75/190 97/91/190
f 98/135/191 86/76/191 97/91/191
f 85/89/192 84/86/192 94/93/192
f 91/94/193 98/135/193 107/95/193
f 84/86/194 89/85/194 93/92/194
f 90/90/195 94/93/195 95/97/195
f 97/91/196 90/90/196 96/98/196
f 102/114/197 105/111/197 95/137/197 94/138/197
f 101/102/198 102/114/198 94/138/198 93/103/198
f 96/139/199 95/137/199 103/109/199
f 97/104/200 96/139/200 103/109/200
f 111/122/201 105/111/201 102/114/201 110/121/201
f 92/140/202 87/24/202 104/115/202
f 99/141/203 92/140/203 104/115/203
f 95/137/204 105/111/204 103/109/204
f 100/101/205 104/115/205 108/108/205
f 106/105/206 97/104/206 112/110/206
f 102/114/207 109/113/207 110/121/207
f 36/34/208 107/107/208 106/105/208 123/117/208
f 116/112/209 105/111/209 111/122/209
f 104/115/210 113/116/210 108/108/210
f 124/26/211 1/129/211 113/116/211 87/24/211
f 113/116/212 1/129/212 114/118/212
f 109/113/213 108/108/213 114/118/213
f 110/121/214 115/120/214 111/122/214
f 116/112/215 122/123/215 118/119/215
f 114/118/216 1/129/216 119/127/216
f 114/118/217 119/127/217 117/124/217
f 123/117/218 112/110/218 118/119/218
f 11/7/219 119/127/219 1/129/219 8/130/219
f 111/122/220 115/120/220 121/126/220
f 111/122/221 121/126/221 122/123/221
f 117/124/222 119/127/222 2/128/222
f 117/124/223 2/128/223 120/125/223
f 123/117/224 7/4/224 125/6/224
f 120/125/225 2/128/225 3/1/225
f 121/126/226 120/125/226 3/1/226
f 122/123/227 121/126/227 5/3/227
f 122/123/228 5/3/228 6/11/228
f 7/4/229 118/119/229 122/123/229 6/11/229
f 119/127/230 11/7/230 4/2/230
