# Blender v2.82 (sub 7) OBJ File: 'X wings.blend'
# www.blender.org
mtllib XwingsReactors.mtl
v -0.010110 0.010126 0.037492
v -0.010445 0.010093 0.037492
v -0.010768 0.009995 0.037492
v -0.011065 0.009836 0.037492
v -0.011326 0.009622 0.037492
v -0.011539 0.009362 0.037492
v -0.011698 0.009064 0.037492
v -0.011796 0.008742 0.037492
v -0.011829 0.008407 0.037492
v -0.011796 0.008071 0.037492
v -0.011698 0.007749 0.037492
v -0.011539 0.007451 0.037492
v -0.011326 0.007191 0.037492
v -0.011065 0.006977 0.037492
v -0.010768 0.006818 0.037492
v -0.010445 0.006720 0.037492
v -0.010110 0.006687 0.037492
v -0.009774 0.006720 0.037492
v -0.009452 0.006818 0.037492
v -0.009155 0.006977 0.037492
v -0.008894 0.007191 0.037492
v -0.008680 0.007451 0.037492
v -0.008521 0.007749 0.037492
v -0.008424 0.008071 0.037492
v -0.008390 0.008407 0.037492
v -0.008424 0.008742 0.037492
v -0.008521 0.009064 0.037492
v -0.008680 0.009362 0.037492
v -0.008894 0.009622 0.037492
v -0.009155 0.009836 0.037492
v -0.009452 0.009995 0.037492
v -0.009774 0.010093 0.037492
v -0.010110 0.010126 0.038206
v -0.010445 0.010093 0.038206
v -0.010768 0.009995 0.038206
v -0.011065 0.009836 0.038206
v -0.011326 0.009622 0.038206
v -0.011539 0.009362 0.038206
v -0.011698 0.009064 0.038206
v -0.011796 0.008742 0.038206
v -0.011829 0.008407 0.038206
v -0.011796 0.008071 0.038206
v -0.011698 0.007749 0.038206
v -0.011539 0.007451 0.038206
v -0.011326 0.007191 0.038206
v -0.011065 0.006977 0.038206
v -0.010768 0.006818 0.038206
v -0.010445 0.006720 0.038206
v -0.010110 0.006687 0.038206
v -0.009774 0.006720 0.038206
v -0.009452 0.006818 0.038206
v -0.009155 0.006977 0.038206
v -0.008894 0.007191 0.038206
v -0.008680 0.007451 0.038206
v -0.008521 0.007749 0.038206
v -0.008424 0.008071 0.038206
v -0.008390 0.008407 0.038206
v -0.008424 0.008742 0.038206
v -0.008521 0.009064 0.038206
v -0.008680 0.009362 0.038206
v -0.008894 0.009622 0.038206
v -0.009155 0.009836 0.038206
v -0.009452 0.009995 0.038206
v -0.009774 0.010093 0.038206
v 0.010110 0.010126 0.037492
v 0.010445 0.010093 0.037492
v 0.010768 0.009995 0.037492
v 0.011065 0.009836 0.037492
v 0.011326 0.009622 0.037492
v 0.011539 0.009362 0.037492
v 0.011698 0.009064 0.037492
v 0.011796 0.008742 0.037492
v 0.011829 0.008407 0.037492
v 0.011796 0.008071 0.037492
v 0.011698 0.007749 0.037492
v 0.011539 0.007451 0.037492
v 0.011326 0.007191 0.037492
v 0.011065 0.006977 0.037492
v 0.010768 0.006818 0.037492
v 0.010445 0.006720 0.037492
v 0.010110 0.006687 0.037492
v 0.009774 0.006720 0.037492
v 0.009452 0.006818 0.037492
v 0.009155 0.006977 0.037492
v 0.008894 0.007191 0.037492
v 0.008680 0.007451 0.037492
v 0.008521 0.007749 0.037492
v 0.008424 0.008071 0.037492
v 0.008390 0.008407 0.037492
v 0.008424 0.008742 0.037492
v 0.008521 0.009064 0.037492
v 0.008680 0.009362 0.037492
v 0.008894 0.009622 0.037492
v 0.009155 0.009836 0.037492
v 0.009452 0.009995 0.037492
v 0.009774 0.010093 0.037492
v 0.010110 0.010126 0.038206
v 0.010445 0.010093 0.038206
v 0.010768 0.009995 0.038206
v 0.011065 0.009836 0.038206
v 0.011326 0.009622 0.038206
v 0.011539 0.009362 0.038206
v 0.011698 0.009064 0.038206
v 0.011796 0.008742 0.038206
v 0.011829 0.008407 0.038206
v 0.011796 0.008071 0.038206
v 0.011698 0.007749 0.038206
v 0.011539 0.007451 0.038206
v 0.011326 0.007191 0.038206
v 0.011065 0.006977 0.038206
v 0.010768 0.006818 0.038206
v 0.010445 0.006720 0.038206
v 0.010110 0.006687 0.038206
v 0.009774 0.006720 0.038206
v 0.009452 0.006818 0.038206
v 0.009155 0.006977 0.038206
v 0.008894 0.007191 0.038206
v 0.008680 0.007451 0.038206
v 0.008521 0.007749 0.038206
v 0.008424 0.008071 0.038206
v 0.008390 0.008407 0.038206
v 0.008424 0.008742 0.038206
v 0.008521 0.009064 0.038206
v 0.008680 0.009362 0.038206
v 0.008894 0.009622 0.038206
v 0.009155 0.009836 0.038206
v 0.009452 0.009995 0.038206
v 0.009774 0.010093 0.038206
v -0.010110 -0.010126 0.037492
v -0.010445 -0.010093 0.037492
v -0.010768 -0.009995 0.037492
v -0.011065 -0.009836 0.037492
v -0.011326 -0.009622 0.037492
v -0.011539 -0.009362 0.037492
v -0.011698 -0.009064 0.037492
v -0.011796 -0.008742 0.037492
v -0.011829 -0.008407 0.037492
v -0.011796 -0.008071 0.037492
v -0.011698 -0.007749 0.037492
v -0.011539 -0.007451 0.037492
v -0.011326 -0.007191 0.037492
v -0.011065 -0.006977 0.037492
v -0.010768 -0.006818 0.037492
v -0.010445 -0.006720 0.037492
v -0.010110 -0.006687 0.037492
v -0.009774 -0.006720 0.037492
v -0.009452 -0.006818 0.037492
v -0.009155 -0.006977 0.037492
v -0.008894 -0.007191 0.037492
v -0.008680 -0.007451 0.037492
v -0.008521 -0.007749 0.037492
v -0.008424 -0.008071 0.037492
v -0.008390 -0.008407 0.037492
v -0.008424 -0.008742 0.037492
v -0.008521 -0.009064 0.037492
v -0.008680 -0.009362 0.037492
v -0.008894 -0.009622 0.037492
v -0.009155 -0.009836 0.037492
v -0.009452 -0.009995 0.037492
v -0.009774 -0.010093 0.037492
v -0.010110 -0.010126 0.038206
v -0.010445 -0.010093 0.038206
v -0.010768 -0.009995 0.038206
v -0.011065 -0.009836 0.038206
v -0.011326 -0.009622 0.038206
v -0.011539 -0.009362 0.038206
v -0.011698 -0.009064 0.038206
v -0.011796 -0.008742 0.038206
v -0.011829 -0.008407 0.038206
v -0.011796 -0.008071 0.038206
v -0.011698 -0.007749 0.038206
v -0.011539 -0.007451 0.038206
v -0.011326 -0.007191 0.038206
v -0.011065 -0.006977 0.038206
v -0.010768 -0.006818 0.038206
v -0.010445 -0.006720 0.038206
v -0.010110 -0.006687 0.038206
v -0.009774 -0.006720 0.038206
v -0.009452 -0.006818 0.038206
v -0.009155 -0.006977 0.038206
v -0.008894 -0.007191 0.038206
v -0.008680 -0.007451 0.038206
v -0.008521 -0.007749 0.038206
v -0.008424 -0.008071 0.038206
v -0.008390 -0.008407 0.038206
v -0.008424 -0.008742 0.038206
v -0.008521 -0.009064 0.038206
v -0.008680 -0.009362 0.038206
v -0.008894 -0.009622 0.038206
v -0.009155 -0.009836 0.038206
v -0.009452 -0.009995 0.038206
v -0.009774 -0.010093 0.038206
v 0.010110 -0.010126 0.037492
v 0.010445 -0.010093 0.037492
v 0.010768 -0.009995 0.037492
v 0.011065 -0.009836 0.037492
v 0.011326 -0.009622 0.037492
v 0.011539 -0.009362 0.037492
v 0.011698 -0.009064 0.037492
v 0.011796 -0.008742 0.037492
v 0.011829 -0.008407 0.037492
v 0.011796 -0.008071 0.037492
v 0.011698 -0.007749 0.037492
v 0.011539 -0.007451 0.037492
v 0.011326 -0.007191 0.037492
v 0.011065 -0.006977 0.037492
v 0.010768 -0.006818 0.037492
v 0.010445 -0.006720 0.037492
v 0.010110 -0.006687 0.037492
v 0.009774 -0.006720 0.037492
v 0.009452 -0.006818 0.037492
v 0.009155 -0.006977 0.037492
v 0.008894 -0.007191 0.037492
v 0.008680 -0.007451 0.037492
v 0.008521 -0.007749 0.037492
v 0.008424 -0.008071 0.037492
v 0.008390 -0.008407 0.037492
v 0.008424 -0.008742 0.037492
v 0.008521 -0.009064 0.037492
v 0.008680 -0.009362 0.037492
v 0.008894 -0.009622 0.037492
v 0.009155 -0.009836 0.037492
v 0.009452 -0.009995 0.037492
v 0.009774 -0.010093 0.037492
v 0.010110 -0.010126 0.038206
v 0.010445 -0.010093 0.038206
v 0.010768 -0.009995 0.038206
v 0.011065 -0.009836 0.038206
v 0.011326 -0.009622 0.038206
v 0.011539 -0.009362 0.038206
v 0.011698 -0.009064 0.038206
v 0.011796 -0.008742 0.038206
v 0.011829 -0.008407 0.038206
v 0.011796 -0.008071 0.038206
v 0.011698 -0.007749 0.038206
v 0.011539 -0.007451 0.038206
v 0.011326 -0.007191 0.038206
v 0.011065 -0.006977 0.038206
v 0.010768 -0.006818 0.038206
v 0.010445 -0.006720 0.038206
v 0.010110 -0.006687 0.038206
v 0.009774 -0.006720 0.038206
v 0.009452 -0.006818 0.038206
v 0.009155 -0.006977 0.038206
v 0.008894 -0.007191 0.038206
v 0.008680 -0.007451 0.038206
v 0.008521 -0.007749 0.038206
v 0.008424 -0.008071 0.038206
v 0.008390 -0.008407 0.038206
v 0.008424 -0.008742 0.038206
v 0.008521 -0.009064 0.038206
v 0.008680 -0.009362 0.038206
v 0.008894 -0.009622 0.038206
v 0.009155 -0.009836 0.038206
v 0.009452 -0.009995 0.038206
v 0.009774 -0.010093 0.038206
vt 0.000000 0.000000
vt 0.000000 0.000000
vt 0.000000 0.000000
vt 0.000000 0.000000
vt 0.000000 0.000000
vt 0.000000 0.000000
vt 0.000000 0.000000
vt 0.000000 0.000000
vt 0.000000 0.000000
vt 0.000000 0.000000
vt 0.000000 0.000000
vt 0.000000 0.000000
vt 0.000000 0.000000
vt 0.000000 0.000000
vt 0.000000 0.000000
vt 0.000000 0.000000
vt 0.000000 0.000000
vt 0.000000 0.000000
vt 0.000000 0.000000
vt 0.000000 0.000000
vt 0.000000 0.000000
vt 0.000000 0.000000
vt 0.000000 0.000000
vt 0.000000 0.000000
vt 0.000000 0.000000
vt 0.000000 0.000000
vt 0.000000 0.000000
vt 0.000000 0.000000
vt 0.000000 0.000000
vt 0.000000 0.000000
vt 0.000000 0.000000
vt 0.000000 0.000000
vt 0.000000 0.000000
vt 0.000000 0.000000
vt 0.000000 0.000000
vt 0.000000 0.000000
vt 0.000000 0.000000
vt 0.000000 0.000000
vt 0.000000 0.000000
vt 0.000000 0.000000
vt 0.000000 0.000000
vt 0.000000 0.000000
vt 0.000000 0.000000
vt 0.000000 0.000000
vt 0.000000 0.000000
vt 0.000000 0.000000
vt 0.000000 0.000000
vt 0.000000 0.000000
vt 0.000000 0.000000
vt 0.000000 0.000000
vt 0.000000 0.000000
vt 0.000000 0.000000
vt 0.000000 0.000000
vt 0.000000 0.000000
vt 0.000000 0.000000
vt 0.000000 0.000000
vt 0.000000 0.000000
vt 0.000000 0.000000
vt 0.000000 0.000000
vt 0.000000 0.000000
vt 0.000000 0.000000
vt 0.000000 0.000000
vt 0.000000 0.000000
vt 0.000000 0.000000
vt 0.000000 0.000000
vt 0.000000 0.000000
vt 0.000000 0.000000
vt 0.000000 0.000000
vt 0.000000 0.000000
vt 0.000000 0.000000
vt 0.000000 0.000000
vt 0.000000 0.000000
vt 0.000000 0.000000
vt 0.000000 0.000000
vt 0.000000 0.000000
vt 0.000000 0.000000
vt 0.000000 0.000000
vt 0.000000 0.000000
vt 0.000000 0.000000
vt 0.000000 0.000000
vt 0.000000 0.000000
vt 0.000000 0.000000
vt 0.000000 0.000000
vt 0.000000 0.000000
vt 0.000000 0.000000
vt 0.000000 0.000000
vt 0.000000 0.000000
vt 0.000000 0.000000
vt 0.000000 0.000000
vt 0.000000 0.000000
vt 0.000000 0.000000
vt 0.000000 0.000000
vt 0.000000 0.000000
vt 0.000000 0.000000
vt 0.000000 0.000000
vt 0.000000 0.000000
vt 0.000000 0.000000
vt 0.000000 0.000000
vt 0.000000 0.000000
vt 0.000000 0.000000
vt 0.000000 0.000000
vt 0.000000 0.000000
vt 0.000000 0.000000
vt 0.000000 0.000000
vt 0.000000 0.000000
vt 0.000000 0.000000
vt 0.000000 0.000000
vt 0.000000 0.000000
vt 0.000000 0.000000
vt 0.000000 0.000000
vt 0.000000 0.000000
vt 0.000000 0.000000
vt 0.000000 0.000000
vt 0.000000 0.000000
vt 0.000000 0.000000
vt 0.000000 0.000000
vt 0.000000 0.000000
vt 0.000000 0.000000
vt 0.000000 0.000000
vt 0.000000 0.000000
vt 0.000000 0.000000
vt 0.000000 0.000000
vt 0.000000 0.000000
vt 0.000000 0.000000
vt 0.000000 0.000000
vt 0.000000 0.000000
vt 0.000000 0.000000
vt 0.000000 0.000000
vt 0.000000 0.000000
vt 0.000000 0.000000
vt 0.000000 0.000000
vt 0.000000 0.000000
vt 0.000000 0.000000
vt 0.000000 0.000000
vt 0.000000 0.000000
vt 0.000000 0.000000
vt 0.000000 0.000000
vt 0.000000 0.000000
vt 0.000000 0.000000
vt 0.000000 0.000000
vt 0.000000 0.000000
vt 0.000000 0.000000
vt 0.000000 0.000000
vt 0.000000 0.000000
vt 0.000000 0.000000
vt 0.000000 0.000000
vt 0.000000 0.000000
vt 0.000000 0.000000
vt 0.000000 0.000000
vt 0.000000 0.000000
vt 0.000000 0.000000
vt 0.000000 0.000000
vt 0.000000 0.000000
vt 0.000000 0.000000
vt 0.000000 0.000000
vt 0.000000 0.000000
vt 0.000000 0.000000
vt 0.000000 0.000000
vt 0.000000 0.000000
vt 0.000000 0.000000
vt 0.000000 0.000000
vt 0.000000 0.000000
vt 0.000000 0.000000
vt 0.000000 0.000000
vt 0.000000 0.000000
vt 0.000000 0.000000
vt 0.000000 0.000000
vt 0.000000 0.000000
vt 0.000000 0.000000
vt 0.000000 0.000000
vt 0.000000 0.000000
vt 0.000000 0.000000
vt 0.000000 0.000000
vt 0.000000 0.000000
vt 0.000000 0.000000
vt 0.000000 0.000000
vt 0.000000 0.000000
vt 0.000000 0.000000
vt 0.000000 0.000000
vt 0.000000 0.000000
vt 0.000000 0.000000
vt 0.000000 0.000000
vt 0.000000 0.000000
vt 0.000000 0.000000
vt 0.000000 0.000000
vt 0.000000 0.000000
vt 0.000000 0.000000
vt 0.000000 0.000000
vt 0.000000 0.000000
vt 0.000000 0.000000
vt 0.000000 0.000000
vt 0.000000 0.000000
vt 0.000000 0.000000
vt 0.000000 0.000000
vt 0.000000 0.000000
vt 0.000000 0.000000
vt 0.000000 0.000000
vt 0.000000 0.000000
vt 0.000000 0.000000
vt 0.000000 0.000000
vt 0.000000 0.000000
vt 0.000000 0.000000
vt 0.000000 0.000000
vt 0.000000 0.000000
vt 0.000000 0.000000
vt 0.000000 0.000000
vt 0.000000 0.000000
vt 0.000000 0.000000
vt 0.000000 0.000000
vt 0.000000 0.000000
vt 0.000000 0.000000
vt 0.000000 0.000000
vt 0.000000 0.000000
vt 0.000000 0.000000
vt 0.000000 0.000000
vt 0.000000 0.000000
vt 0.000000 0.000000
vt 0.000000 0.000000
vt 0.000000 0.000000
vt 0.000000 0.000000
vt 0.000000 0.000000
vt 0.000000 0.000000
vt 0.000000 0.000000
vt 0.000000 0.000000
vt 0.000000 0.000000
vt 0.000000 0.000000
vt 0.000000 0.000000
vt 0.000000 0.000000
vt 0.000000 0.000000
vt 0.000000 0.000000
vt 0.000000 0.000000
vt 0.000000 0.000000
vt 0.000000 0.000000
vt 0.000000 0.000000
vt 0.000000 0.000000
vt 0.000000 0.000000
vt 0.000000 0.000000
vt 0.000000 0.000000
vt 0.000000 0.000000
vt 0.000000 0.000000
vt 0.000000 0.000000
vt 0.000000 0.000000
vt 0.000000 0.000000
vt 0.000000 0.000000
vt 0.000000 0.000000
vt 0.000000 0.000000
vt 0.000000 0.000000
vt 0.000000 0.000000
vt 0.000000 0.000000
vt 0.000000 0.000000
vt 0.000000 0.000000
vt 0.000000 0.000000
vt 0.000000 0.000000
vt 0.000000 0.000000
vt 0.000000 0.000000
vt 0.000000 0.000000
vn -0.9952 0.0980 0.0000
vn 0.8819 -0.4714 0.0000
vn -0.9952 -0.0980 0.0000
vn 0.9569 -0.2903 0.0000
vn -0.9569 -0.2903 0.0000
vn 0.9952 -0.0980 0.0000
vn -0.8819 -0.4714 0.0000
vn 0.9952 0.0980 0.0000
vn -0.7730 -0.6344 0.0000
vn 0.9569 0.2903 0.0000
vn -0.6344 -0.7730 0.0000
vn 0.8819 0.4714 0.0000
vn -0.4714 -0.8819 0.0000
vn -0.0980 0.9952 0.0000
vn 0.7730 0.6344 0.0000
vn -0.2903 -0.9569 0.0000
vn -0.2903 0.9569 0.0000
vn 0.6344 0.7730 0.0000
vn -0.0980 -0.9952 0.0000
vn -0.4714 0.8819 0.0000
vn 0.4714 0.8819 0.0000
vn 0.0980 -0.9952 0.0000
vn -0.6344 0.7730 0.0000
vn 0.2903 0.9569 0.0000
vn 0.2903 -0.9569 0.0000
vn -0.7730 0.6344 0.0000
vn 0.0980 0.9952 0.0000
vn 0.4714 -0.8819 0.0000
vn -0.8819 0.4714 0.0000
vn 0.6344 -0.7730 0.0000
vn -0.9569 0.2903 0.0000
vn 0.7730 -0.6344 0.0000
vn -0.0000 0.0000 1.0000
vn -0.0000 0.0000 -1.0000
usemtl None
s off
f 8/1/1 9/2/1 41/3/1 40/4/1
f 22/5/2 23/6/2 55/7/2 54/8/2
f 9/2/3 10/9/3 42/10/3 41/3/3
f 23/6/4 24/11/4 56/12/4 55/7/4
f 10/9/5 11/13/5 43/14/5 42/10/5
f 24/11/6 25/15/6 57/16/6 56/12/6
f 11/13/7 12/17/7 44/18/7 43/14/7
f 25/15/8 26/19/8 58/20/8 57/16/8
f 12/17/9 13/21/9 45/22/9 44/18/9
f 26/19/10 27/23/10 59/24/10 58/20/10
f 13/21/11 14/25/11 46/26/11 45/22/11
f 27/23/12 28/27/12 60/28/12 59/24/12
f 14/25/13 15/29/13 47/30/13 46/26/13
f 1/31/14 2/32/14 34/33/14 33/34/14
f 28/27/15 29/35/15 61/36/15 60/28/15
f 15/29/16 16/37/16 48/38/16 47/30/16
f 2/32/17 3/39/17 35/40/17 34/33/17
f 29/35/18 30/41/18 62/42/18 61/36/18
f 16/37/19 17/43/19 49/44/19 48/38/19
f 3/39/20 4/45/20 36/46/20 35/40/20
f 30/41/21 31/47/21 63/48/21 62/42/21
f 17/43/22 18/49/22 50/50/22 49/44/22
f 4/45/23 5/51/23 37/52/23 36/46/23
f 31/47/24 32/53/24 64/54/24 63/48/24
f 18/49/25 19/55/25 51/56/25 50/50/25
f 5/51/26 6/57/26 38/58/26 37/52/26
f 32/53/27 1/31/27 33/34/27 64/54/27
f 19/55/28 20/59/28 52/60/28 51/56/28
f 6/57/29 7/61/29 39/62/29 38/58/29
f 20/59/30 21/63/30 53/64/30 52/60/30
f 7/61/31 8/1/31 40/4/31 39/62/31
f 21/63/32 22/5/32 54/8/32 53/64/32
f 34/33/33 35/40/33 36/46/33 37/52/33 38/58/33 39/62/33 40/4/33 41/3/33 42/10/33 43/14/33 44/18/33 45/22/33 46/26/33 47/30/33 48/38/33 49/44/33 50/50/33 51/56/33 52/60/33 53/64/33 54/8/33 55/7/33 56/12/33 57/16/33 58/20/33 59/24/33 60/28/33 61/36/33 62/42/33 63/48/33 64/54/33 33/34/33
f 2/32/34 1/31/34 32/53/34 31/47/34 30/41/34 29/35/34 28/27/34 27/23/34 26/19/34 25/15/34 24/11/34 23/6/34 22/5/34 21/63/34 20/59/34 19/55/34 18/49/34 17/43/34 16/37/34 15/29/34 14/25/34 13/21/34 12/17/34 11/13/34 10/9/34 9/2/34 8/1/34 7/61/34 6/57/34 5/51/34 4/45/34 3/39/34
f 72/65/8 104/66/8 105/67/8 73/68/8
f 86/69/7 118/70/7 119/71/7 87/72/7
f 73/68/6 105/67/6 106/73/6 74/74/6
f 87/72/5 119/71/5 120/75/5 88/76/5
f 74/74/4 106/73/4 107/77/4 75/78/4
f 88/76/3 120/75/3 121/79/3 89/80/3
f 75/78/2 107/77/2 108/81/2 76/82/2
f 89/80/1 121/79/1 122/83/1 90/84/1
f 76/82/32 108/81/32 109/85/32 77/86/32
f 90/84/31 122/83/31 123/87/31 91/88/31
f 77/86/30 109/85/30 110/89/30 78/90/30
f 91/88/29 123/87/29 124/91/29 92/92/29
f 78/90/28 110/89/28 111/93/28 79/94/28
f 65/95/27 97/96/27 98/97/27 66/98/27
f 92/92/26 124/91/26 125/99/26 93/100/26
f 79/94/25 111/93/25 112/101/25 80/102/25
f 66/98/24 98/97/24 99/103/24 67/104/24
f 93/100/23 125/99/23 126/105/23 94/106/23
f 80/102/22 112/101/22 113/107/22 81/108/22
f 67/104/21 99/103/21 100/109/21 68/110/21
f 94/106/20 126/105/20 127/111/20 95/112/20
f 81/108/19 113/107/19 114/113/19 82/114/19
f 68/110/18 100/109/18 101/115/18 69/116/18
f 95/112/17 127/111/17 128/117/17 96/118/17
f 82/114/16 114/113/16 115/119/16 83/120/16
f 69/116/15 101/115/15 102/121/15 70/122/15
f 96/118/14 128/117/14 97/96/14 65/95/14
f 83/120/13 115/119/13 116/123/13 84/124/13
f 70/122/12 102/121/12 103/125/12 71/126/12
f 84/124/11 116/123/11 117/127/11 85/128/11
f 71/126/10 103/125/10 104/66/10 72/65/10
f 85/128/9 117/127/9 118/70/9 86/69/9
f 98/97/33 97/96/33 128/117/33 127/111/33 126/105/33 125/99/33 124/91/33 123/87/33 122/83/33 121/79/33 120/75/33 119/71/33 118/70/33 117/127/33 116/123/33 115/119/33 114/113/33 113/107/33 112/101/33 111/93/33 110/89/33 109/85/33 108/81/33 107/77/33 106/73/33 105/67/33 104/66/33 103/125/33 102/121/33 101/115/33 100/109/33 99/103/33
f 66/98/34 67/104/34 68/110/34 69/116/34 70/122/34 71/126/34 72/65/34 73/68/34 74/74/34 75/78/34 76/82/34 77/86/34 78/90/34 79/94/34 80/102/34 81/108/34 82/114/34 83/120/34 84/124/34 85/128/34 86/69/34 87/72/34 88/76/34 89/80/34 90/84/34 91/88/34 92/92/34 93/100/34 94/106/34 95/112/34 96/118/34 65/95/34
f 136/129/3 168/130/3 169/131/3 137/132/3
f 150/133/12 182/134/12 183/135/12 151/136/12
f 137/132/1 169/131/1 170/137/1 138/138/1
f 151/136/10 183/135/10 184/139/10 152/140/10
f 138/138/31 170/137/31 171/141/31 139/142/31
f 152/140/8 184/139/8 185/143/8 153/144/8
f 139/142/29 171/141/29 172/145/29 140/146/29
f 153/144/6 185/143/6 186/147/6 154/148/6
f 140/146/26 172/145/26 173/149/26 141/150/26
f 154/148/4 186/147/4 187/151/4 155/152/4
f 141/150/23 173/149/23 174/153/23 142/154/23
f 155/152/2 187/151/2 188/155/2 156/156/2
f 142/154/20 174/153/20 175/157/20 143/158/20
f 129/159/19 161/160/19 162/161/19 130/162/19
f 156/156/32 188/155/32 189/163/32 157/164/32
f 143/158/17 175/157/17 176/165/17 144/166/17
f 130/162/16 162/161/16 163/167/16 131/168/16
f 157/164/30 189/163/30 190/169/30 158/170/30
f 144/166/14 176/165/14 177/171/14 145/172/14
f 131/168/13 163/167/13 164/173/13 132/174/13
f 158/170/28 190/169/28 191/175/28 159/176/28
f 145/172/27 177/171/27 178/177/27 146/178/27
f 132/174/11 164/173/11 165/179/11 133/180/11
f 159/176/25 191/175/25 192/181/25 160/182/25
f 146/178/24 178/177/24 179/183/24 147/184/24
f 133/180/9 165/179/9 166/185/9 134/186/9
f 160/182/22 192/181/22 161/160/22 129/159/22
f 147/184/21 179/183/21 180/187/21 148/188/21
f 134/186/7 166/185/7 167/189/7 135/190/7
f 148/188/18 180/187/18 181/191/18 149/192/18
f 135/190/5 167/189/5 168/130/5 136/129/5
f 149/192/15 181/191/15 182/134/15 150/133/15
f 162/161/33 161/160/33 192/181/33 191/175/33 190/169/33 189/163/33 188/155/33 187/151/33 186/147/33 185/143/33 184/139/33 183/135/33 182/134/33 181/191/33 180/187/33 179/183/33 178/177/33 177/171/33 176/165/33 175/157/33 174/153/33 173/149/33 172/145/33 171/141/33 170/137/33 169/131/33 168/130/33 167/189/33 166/185/33 165/179/33 164/173/33 163/167/33
f 130/162/34 131/168/34 132/174/34 133/180/34 134/186/34 135/190/34 136/129/34 137/132/34 138/138/34 139/142/34 140/146/34 141/150/34 142/154/34 143/158/34 144/166/34 145/172/34 146/178/34 147/184/34 148/188/34 149/192/34 150/133/34 151/136/34 152/140/34 153/144/34 154/148/34 155/152/34 156/156/34 157/164/34 158/170/34 159/176/34 160/182/34 129/159/34
f 200/193/6 201/194/6 233/195/6 232/196/6
f 214/197/29 215/198/29 247/199/29 246/200/29
f 201/194/8 202/201/8 234/202/8 233/195/8
f 215/198/31 216/203/31 248/204/31 247/199/31
f 202/201/10 203/205/10 235/206/10 234/202/10
f 216/203/1 217/207/1 249/208/1 248/204/1
f 203/205/12 204/209/12 236/210/12 235/206/12
f 217/207/3 218/211/3 250/212/3 249/208/3
f 204/209/15 205/213/15 237/214/15 236/210/15
f 218/211/5 219/215/5 251/216/5 250/212/5
f 205/213/18 206/217/18 238/218/18 237/214/18
f 219/215/7 220/219/7 252/220/7 251/216/7
f 206/217/21 207/221/21 239/222/21 238/218/21
f 193/223/22 194/224/22 226/225/22 225/226/22
f 220/219/9 221/227/9 253/228/9 252/220/9
f 207/221/24 208/229/24 240/230/24 239/222/24
f 194/224/25 195/231/25 227/232/25 226/225/25
f 221/227/11 222/233/11 254/234/11 253/228/11
f 208/229/27 209/235/27 241/236/27 240/230/27
f 195/231/28 196/237/28 228/238/28 227/232/28
f 222/233/13 223/239/13 255/240/13 254/234/13
f 209/235/14 210/241/14 242/242/14 241/236/14
f 196/237/30 197/243/30 229/244/30 228/238/30
f 223/239/16 224/245/16 256/246/16 255/240/16
f 210/241/17 211/247/17 243/248/17 242/242/17
f 197/243/32 198/249/32 230/250/32 229/244/32
f 224/245/19 193/223/19 225/226/19 256/246/19
f 211/247/20 212/251/20 244/252/20 243/248/20
f 198/249/2 199/253/2 231/254/2 230/250/2
f 212/251/23 213/255/23 245/256/23 244/252/23
f 199/253/4 200/193/4 232/196/4 231/254/4
f 213/255/26 214/197/26 246/200/26 245/256/26
f 226/225/33 227/232/33 228/238/33 229/244/33 230/250/33 231/254/33 232/196/33 233/195/33 234/202/33 235/206/33 236/210/33 237/214/33 238/218/33 239/222/33 240/230/33 241/236/33 242/242/33 243/248/33 244/252/33 245/256/33 246/200/33 247/199/33 248/204/33 249/208/33 250/212/33 251/216/33 252/220/33 253/228/33 254/234/33 255/240/33 256/246/33 225/226/33
f 194/224/34 193/223/34 224/245/34 223/239/34 222/233/34 221/227/34 220/219/34 219/215/34 218/211/34 217/207/34 216/203/34 215/198/34 214/197/34 213/255/34 212/251/34 211/247/34 210/241/34 209/235/34 208/229/34 207/221/34 206/217/34 205/213/34 204/209/34 203/205/34 202/201/34 201/194/34 200/193/34 199/253/34 198/249/34 197/243/34 196/237/34 195/231/34
